<svg xmlns="http://www.w3.org/2000/svg" width="202.9" height="97.1" viewBox="2 1.6 202.9 97.1"><path fill="#73B7C3" d="M57.5 21.7l.4-.7c-3.4-1.8-6.9-3-10.4-3.5-1.5-.2-2.9-.3-4.3-.3-11.6 0-22 7-25.8 17.4l3.7 1.4c3.3-8.8 12.1-14.8 22.1-14.8 1.2 0 2.5.1 3.8.3 6.7 1 13.2 4.6 19.3 10.9l2.2-2.1c-3.2-3.2-6.8-6.3-11-8.6z"/><path fill="#73B7C3" d="M30.2 68.1C20.3 63.5 13.7 53.7 13.7 43c0-5.3 1.6-10.5 4.5-15 1.1-1.7 2.5-3.3 3.9-4.7l1.8 1.9c-1.2 1.3-2.4 2.8-3.5 4.3-2.7 4-4.1 8.6-4.1 13.4 0 9.6 5.7 18.4 15 22.7l-1.1 2.5zM79 46.4l-1.2-2.7c-.1-.2-.2-.5-.4-.8-2 3.8-12.6 22.5-30.1 25-1.4.2-2.9.7-4.3.7-4 0-7.9-.9-11.5-2.5l-1.3 2.4c4 1.9 8.4 2.8 12.9 2.8 1.5 0 3.1-.1 4.7-.3 16.9-2.4 27.4-17.8 31.3-24.6H79z"/><path fill="#EA7625" d="M82.7 59.3c-3.4 4.6-7.2 8.6-11.2 11.9l1 1.2c4-3.2 7.7-7.2 11.1-11.7 6.9 9.4 18.5 20.7 35.2 23.1l.4-2.8c-17.1-2.4-28.6-14.5-35.4-24.8-.4-.5-1.1 3.1-1.1 3.1z"/><path fill="#EDB51D" d="M127.3 70.9c-2.2.1-4.4.1-6.7-.3-5.1-.7-10.1-2.8-14.9-6.1l-1.5 2.1c5 3.5 10.3 5.7 16 6.5 1.7.2 3.3.4 5 .4.7 0 1.4 0 2.1-.1v-2.5z"/><path fill="#EA7625" d="M80.3 45.8l-1.3.6-1.2-2.7c-.9-1.7-4.1-7.6-9.5-13.4l-2.3 2c4.7 4.9 7.6 9.8 8.6 11.7l4 7 3.4-2-1.7-3.2z"/><path fill="#73B7C3" d="M125.2 68.6c-1.4 0-2.9-.1-4.3-.3-18-2.6-28.5-20.9-30.4-24.5l2.8-1.5c1.1 2.1 11.2 20.5 28.1 22.9 1.3.2 2.6.3 3.9.3-.1-.1-.1 3.1-.1 3.1z"/><path fill="#01838C" d="M150.3 36c-1.2-3.9-3.4-7.5-6.4-10.4-4-3.8-9-6.2-14.7-7l.5-3.6c6.3.9 12 3.7 16.6 8 3.5 3.3 6 7.4 7.4 11.9l-3.4 1.1z"/><path fill="#01838C" d="M102.2 24.6l-1.7-1.9c6.1-5.4 12.7-8.6 19.8-9.6 1.7-.2 3.3-.4 5-.4 8.5 0 16.6 3.1 22.6 8.9l-1.8 1.9c-5.5-5.2-12.8-8.1-20.8-8.1-1.5 0-3.1.1-4.6.3-6.6.9-12.8 3.9-18.5 8.9z"/><path fill="#EDB51D" d="M89.1 49.7l-8.9-4.2 2.1-4.5c1.4-3 6.6-13 15.7-21.1l3.7-3.3 6.5 7.4-3.7 3.3c-7.9 7-12.5 16.2-13.3 17.9l-2.1 4.5z"/><path fill="#01838C" d="M13.5 55c-1.6-3.8-2.5-7.7-2.5-11.9 0-8.2 3.3-16 9.3-21.7 2.1-2 4.5-3.7 7-5.1l1.4 2.7c-2.3 1.2-4.5 2.8-6.4 4.6-5.4 5.2-8.4 12-8.4 19.5 0 3.7.7 7.3 2.2 10.7L13.5 55z"/><path fill="#EDB51D" d="M24.1 25.4l-1.9-1.9c5.5-5.3 12.9-8.2 20.8-8.2 1.5 0 3.1.1 4.6.3 3.8.5 7.5 1.8 11 3.7l-1.3 2.4c-3.3-1.8-6.7-2.9-10.1-3.4-1.4-.2-2.8-.3-4.2-.3-7.2 0-13.9 2.6-18.9 7.4zM5.6 43.1H4C4 33 8.1 23.4 15.5 16.3l1.1 1.2c-7.1 6.8-11 15.9-11 25.6z"/><path fill="#01838C" d="M70.8 15c-6.6-5.3-13.9-8.6-21.7-9.7-2-.3-4.1-.4-6.1-.4-8 0-15.8 2.2-22.3 6.5l-1.2-1.8c7-4.6 15.1-7 23.6-7 2.1 0 4.3.2 6.4.5 8.1 1.2 15.8 4.6 22.8 10.1L70.8 15zM86.3 29.2l-4.3-3c6.9-9.8 19-22.1 36.6-24.6l.7 5.2c-15.7 2.2-26.7 13.4-33 22.4z"/><path fill="#73B7C3" d="M91.3 29.8l-3.1-2.3c6.1-8 16.5-18.1 31.2-20.2 1.9-.3 3.9-.4 5.8-.4 5 0 9.8.9 14.3 2.7l-1.4 3.6c-4.1-1.6-8.4-2.4-12.9-2.4-1.7 0-3.5.1-5.2.4-13.5 1.9-23.1 11.2-28.7 18.6z"/><path fill="#73B7C3" d="M85.1 36.1l-4.3-1.7 1.3-3.1.1-.2C87.7 22.4 99.8 7.2 119 4.5c2.1-.3 4.1-.4 6.2-.4v4.4c-1.8 0-3.7.1-5.6.4-16.4 2.3-27.2 14.4-33.4 24.4l-1.1 2.8z"/><path fill="#73B7C3" d="M85 31.3l-2.2-2.7c-3.7-5.2-7.8-9.7-12.2-13.2l2.1-2.6c4.7 3.7 9 8.4 12.8 13.8l2.1 2.6-2.6 2.1z"/><path fill="#EA7625" d="M153.2 15.9c-7.4-7.1-17.5-11-28-11-2 0-4.1.1-6.1.4l-.3-2.3c2.1-.3 4.3-.5 6.4-.5 11.1 0 21.7 4.1 29.5 11.7l-1.5 1.7z"/><path fill="#01838C" d="M48.7 77.2l-.8-5.6C70.2 68.3 81.5 42.3 81.6 42c.5-1.2 12.4-29.4 38.1-33l.8 5.6C98 17.8 86.9 43.9 86.8 44.2c-.5 1.2-12.5 29.4-38.1 33z"/><path fill="#01838C" d="M25.1 71.6l2.5-4.2c6 3.5 13 4.8 20.3 3.8l.7 4.8c4.7-.7 9.2-2.3 13.6-4.8L58.1 64c-3.4 2-7 3.2-10.6 3.7-1.4.2-2.8.3-4.2.3-7.1 0-13.8-2.6-18.8-7.4-2.4-2.3-4.3-5-5.6-7.9l-7.1 3.1c1.7 3.8 4.1 7.4 7.3 10.4l-.4.4c1.9 1.9 4 3.6 6.4 5z"/><path fill="#01838C" d="M43.1 78.5c-9.8 0-19.1-3.6-26-10.2l1.6-1.6c6.5 6.2 15.2 9.6 24.4 9.6 1.8 0 3.6-.1 5.4-.4C67 73.2 78.1 57.5 83.2 48.4l1.3-3 2.1.9-1.3 3.2C80.1 59 68.4 75.4 48.9 78.1c-2 .3-3.9.4-5.8.4z"/><path fill="#01838C" d="M43.1 84.6c-11.4 0-22.1-4.2-30.2-11.9l2.8-3c7.3 6.9 17 10.8 27.3 10.8 2 0 4-.1 6-.4 7.7-1.1 15-4.4 21.6-9.7l2.6 3.2C65.9 79.4 58 83 49.6 84.2c-2.1.2-4.3.4-6.5.4z"/><path fill="#EDB51D" d="M49.2 81.3l-.5-3.6C65.3 75.3 76.3 62.9 82.6 53c.2-.3 1.9-3.3 2.5-4.5l3.2 1.7c-.7 1.4-2.5 4.5-2.6 4.7v.1C79 65.5 67.2 78.7 49.2 81.3z"/><path fill="#73B7C3" d="M25.2 71.4c-10.3-6-16.6-16.6-16.6-28.2 0-1.7.1-3.4.4-5l2.5.4c-.2 1.5-.4 3.1-.4 4.6 0 10.7 5.7 20.5 15.3 26l-1.2 2.2z"/><path fill="#EA7625" d="M12.7 38.6l-4.9-.8c1.4-8.9 6.3-16.8 13.8-22.2 7.6-5.5 17.2-7.7 26.8-6.3 2.2.3 4.3.8 6.4 1.5l-1.4 4.7c-1.8-.6-3.7-1-5.6-1.3-17-2.3-32.4 8.3-35.1 24.4z"/><path fill="#EDB51D" d="M12.1 73.4C7.6 69.1 4.2 63.9 2 58.3L7.7 56c1.9 4.8 4.8 9.1 8.6 12.8l-4.2 4.6z"/><path fill="#73B7C3" d="M43.1 81.7c-10.6 0-20.7-4-28.2-11.1C8 64 3.8 55.3 3.1 46v-.1L3 43.2l3.6-.1.1 2.7c.6 8.4 4.4 16.3 10.6 22.2 6.8 6.5 16 10.1 25.7 10.1 1.9 0 3.8-.1 5.6-.4l.5 3.6c-1.9.3-4 .4-6 .4z"/><path fill="#EDB51D" d="M59.6 69.2l-1.1-1.9 1-.6c12.6-7.3 19.8-21.3 21.1-24l.5-1 2 1-.5 1c-1.3 2.8-8.7 17.4-22.1 25l-.9.5z"/><path fill="#01838C" d="M87.7 41.7c-.1-.3-.9-2.2-2.4-4.9l.6-.3c-5.3-9.7-17.3-26.3-37-29.1-1.9-.4-3.9-.5-5.8-.5v3.8c1.7 0 3.5.1 5.2.4 2.1.3 4.2.8 6.1 1.4L53 16.9c18.3 6 27.5 27.5 27.6 27.7.5 1.2 12.7 29.9 38.9 33.6l1.1-7.6c-21.9-3.2-32.8-28.7-32.9-28.9z"/><path fill="#EDB51D" d="M159.9 43.1h-3.1c0-8.5-3.7-16.7-10.3-22.4-7-6.1-16.6-8.8-26.2-7.4l-.4-3.1c10.5-1.5 21 1.5 28.7 8.1 7.1 6.4 11.3 15.4 11.3 24.8zM39.1 30.1h8.3V56h-8.3z"/><path fill="#01838C" d="M30.3 38.9h25.9v8.3H30.3zM111.2 22.9l-.6-1.1c-11.8 6.5-18.8 19.4-20.1 21.9l-1.2 2.5-1.3-.6-.5 1.2 4.7 2.1 2.1-4.7c1.2-2.3 10.8-19.3 26.3-22.1l-.5-2.5c-3.1.6-6.1 1.7-8.9 3.3z"/><path fill="#73B7C3" d="M125.2 79.7c-1.9 0-3.9-.1-5.9-.4-8.7-1.2-16.9-5.3-24.1-12l3.2-3.4c6.5 6.1 13.8 9.7 21.6 10.8 2.1.3 4.2.4 6.2.4l.1 4.6h-1.1z"/><path fill="#EA7625" d="M125.2 16.7c-1.4 0-2.9.1-4.4.3-.4.1-.8.1-1.2.2l.9 5c.3-.1.7-.2 1-.2 1.2-.2 2.5-.3 3.7-.3 12.3 0 22.3 9.2 22.8 20.6l5.1-.5c-.8-14-13-25.1-27.9-25.1z"/><path fill="#73B7C3" d="M156.7 45.1c.1-.7.1-1.3.1-2 0-8.1-3.3-15.7-9.2-21.4l-1.5 1.6c5.5 5.2 8.5 12.2 8.5 19.8 0 .6 0 1.2-.1 1.8l2.2.2zM155.2 13.9l-2.3 2.4c7.3 7 11.3 16.2 11.5 26.1l3.3-.3c-.2-10.7-4.6-20.7-12.5-28.2z"/><path fill="#01838C" d="M132.5 82l3.4-10.9h3l3.5 10.9h-2.9l-.6-2.2h-3.1l-.6 2.2h-2.7zm4.9-8.4l-1 4h2.1l-1.1-4zM143.4 71h4.4c3 0 4.2 1.5 4.2 3.7 0 1.5-.6 2.6-1.8 3.3l2.1 4h-3.2l-1.6-3.5h-1.4V82h-2.7V71zm5.8 3.7c0-1-.4-1.5-1.6-1.5h-1.4v3.1h1.4c1 0 1.6-.4 1.6-1.6zM153.8 71h3.6c4.1 0 5.5 1.9 5.5 5.4 0 2.6-.8 5.6-5.4 5.6h-3.6V71h-.1zm2.7 2.2v6.5h1c2.2 0 2.4-1.4 2.4-3.2 0-2.1-.2-3.3-2.6-3.3h-.8zM170.6 71h2.6v7.2c0 3.2-2.5 3.9-4.4 3.9s-4.3-.6-4.3-3.9V71h2.7v6.7c0 1.8.6 2.2 1.7 2.2 1.2 0 1.7-.6 1.7-2.2V71zM175.1 79.7h2.8v-6.5h-2.8V71h8.4v2.2h-2.8v6.5h2.8v2.2h-8.4v-2.2zM187.9 82h-2.6V71h2.9l3.6 6.6V71h2.5v10.9h-2.7l-3.7-7V82zM204.9 76.5c0 3.2-1.2 5.6-4.7 5.6-3.1 0-4.6-1.9-4.6-5.5 0-3.3 1.3-5.7 4.6-5.7 3.2 0 4.7 1.4 4.7 5.6zm-2.8 0c0-2.7-.2-3.4-1.8-3.4-1.4 0-1.7.9-1.7 3.5 0 2.2.2 3.3 1.7 3.3s1.8-.9 1.8-3.4z"/><g fill="#9D846E"><path d="M132.8 87.7h3.6c4.1 0 5.5 1.9 5.5 5.4 0 2.6-.8 5.6-5.4 5.6h-3.6v-11h-.1zm2.7 2.2v6.5h1c2.2 0 2.4-1.4 2.4-3.2 0-2.1-.2-3.3-2.6-3.3h-.8zM142.3 98.7l3.4-10.9h3l3.5 10.9h-2.9l-.6-2.2h-3.1l-.6 2.2h-2.7zm5-8.4l-1 4h2.1l-1.1-4zM157.7 92.1l1.9-4.5h2.7l-3.4 6.6v4.3h-2.7v-4.2l-3.5-6.7h2.9l2.1 4.5z"/></g><path fill="#EA7625" d="M171.8 90.6c0-1.2-.9-1.9-1.9-1.9-.8 0-1.7.5-2.3 1.2l-.7-.9c.5-.6 1.7-1.4 3.3-1.4 1.7 0 3 1 3 2.9 0 2.2-2.9 5.3-5.1 7h5.6v1.2h-7.3v-.9c2-1.6 5.4-5.1 5.4-7.2zM184.5 92.8c0 2.7-.7 5.9-4.2 5.9-2.8 0-4.1-1.9-4.1-5.4 0-3.1.9-5.8 4.2-5.8 2.9.1 4.1 2.1 4.1 5.3zm-6.2 3.9l3.2-7.8c-.4-.2-.8-.3-1.3-.3-2.2 0-2.7 2.2-2.7 4.3 0 1.5.1 2.9.8 3.8zm4.8-3.7c0-1.3-.1-2.7-.8-3.5l-3.2 7.8c.3.2.8.3 1.3.3 2.3 0 2.7-2.4 2.7-4.6zM187 97.4h3.1v-8.6l-2.4.1v-1.2l3.8-.2v9.8h2.9v1.2H187v-1.1zM201.1 98.7c-2.8 0-3.8-2.1-3.8-5.2 0-3.8 2.2-6 5.8-6 .4 0 .8 0 1.2.1v1.2c-.4-.1-.8-.1-1.2-.1-2.3 0-4.2 1.3-4.4 4.1.8-.5 1.7-.9 2.8-.9 1.8 0 3.2 1 3.2 3 .1 2.2-1.3 3.8-3.6 3.8zm0-5.7c-1 0-1.9.4-2.4.9 0 1.9.5 3.6 2.6 3.6 1.5 0 2.1-1.2 2.1-2.4 0-1.4-.7-2.1-2.3-2.1z"/><g fill="#01838C"><path d="M132.8 49.2v16.5h16.5V49.2h-16.5zM146 59h-3.4v3.4h-3.3V59h-3.4v-3.2h3.4v-3.4h3.3v3.4h3.4V59zM188.1 49.2v16.5h16.6V49.2h-16.6zm13.4 9.8h-10.1v-3.2h10.1V59zM151.2 49.2v16.5h16.5V49.2h-16.5zm8.2 12.1c-3.6 0-6.5-3.9-6.5-3.9s2.9-3.9 6.5-3.9 6.5 3.9 6.5 3.9-2.8 3.9-6.5 3.9z"/><circle cx="159.4" cy="57.4" r="1.8"/><path d="M169.7 49.2v16.5h16.5V49.2h-16.5zm9.3 10.6l-2.3 2.3-2.3-2.3-2.3-2.3 2.3-2.3 2.3 2.3 4.8-4.8 2.3 2.3-4.8 4.8z"/></g></svg>